<svg id="Icon_Set" enable-background="new 0 0 256 256" height="512" viewBox="0 0 256 256" width="512" xmlns="http://www.w3.org/2000/svg"><g><g><circle cx="128" cy="128" fill="#5fcdff" r="113.141"/><circle cx="128" cy="128" fill="#ffe2e2" r="83.141"/><path d="m144 165h-6.5v-49.5c0-5.247-4.253-9.5-9.5-9.5h-9.75c-5.247 0-9.5 4.253-9.5 9.5s4.253 9.5 9.5 9.5h.25v40h-6.5c-5.247 0-9.5 4.253-9.5 9.5s4.253 9.5 9.5 9.5h32c5.247 0 9.5-4.253 9.5-9.5s-4.253-9.5-9.5-9.5z" fill="#5fcdff"/><circle cx="125.667" cy="81" fill="#5fcdff" r="9"/><path d="m135.5 240.89c-2.48.17-4.98.25-7.5.25-62.49 0-113.14-50.65-113.14-113.14s50.65-113.14 113.14-113.14c2.52 0 5.02.08 7.5.26-58.99 3.85-105.64 52.91-105.64 112.88s46.65 109.03 105.64 112.89z" fill="#73d7f9"/><path d="m135.5 210.8c-2.47.23-4.97.34-7.5.34-45.84 0-83.14-37.3-83.14-83.14s37.3-83.14 83.14-83.14c2.53 0 5.03.11 7.5.34-42.34 3.8-75.64 39.49-75.64 82.8s33.3 79 75.64 82.8z" fill="#ffefee"/><path d="m241.14 128c0 62.49-50.65 113.14-113.14 113.14-2.52 0-5.02-.08-7.5-.25 58.99-3.86 105.64-52.92 105.64-112.89s-46.65-109.03-105.64-112.88c2.48-.18 4.98-.26 7.5-.26 62.49 0 113.14 50.65 113.14 113.14z" fill="#30b6ff"/><path d="m211.14 128c0 45.84-37.3 83.14-83.14 83.14-2.53 0-5.03-.11-7.5-.34 42.34-3.8 75.64-39.49 75.64-82.8s-33.3-79-75.64-82.8c2.47-.23 4.97-.34 7.5-.34 45.84 0 83.14 37.3 83.14 83.14z" fill="#ffcfcf"/></g><g fill="#5f266d"><path d="m128 10.859c-64.592 0-117.141 52.549-117.141 117.141s52.549 117.141 117.141 117.141 117.141-52.549 117.141-117.141-52.549-117.141-117.141-117.141zm0 226.282c-60.181 0-109.141-48.96-109.141-109.141s48.96-109.141 109.141-109.141 109.141 48.96 109.141 109.141-48.96 109.141-109.141 109.141z"/><path d="m128 40.859c-48.05 0-87.141 39.091-87.141 87.141s39.091 87.141 87.141 87.141 87.141-39.091 87.141-87.141-39.091-87.141-87.141-87.141zm0 166.282c-43.639 0-79.141-35.502-79.141-79.141s35.502-79.141 79.141-79.141 79.141 35.502 79.141 79.141-35.502 79.141-79.141 79.141z"/><path d="m184.564 119.872c-.313-2.187-2.335-3.709-4.526-3.393-2.187.313-3.706 2.339-3.393 4.526.329 2.303.496 4.656.496 6.995 0 2.209 1.79 4 3.999 4.001h.001c2.209 0 4-1.791 4-3.999.001-2.718-.193-5.454-.577-8.13z"/><path d="m180.054 104.435c-4.475-9.848-11.629-18.209-20.688-24.179-1.847-1.217-4.326-.706-5.541 1.139-1.216 1.845-.706 4.326 1.139 5.541 7.799 5.14 13.957 12.335 17.807 20.809.913 2.009 3.282 2.901 5.296 1.987 2.012-.915 2.901-3.286 1.987-5.297z"/><path d="m144 161h-2.5v-45.5c0-7.444-6.056-13.5-13.5-13.5h-9.75c-7.444 0-13.5 6.056-13.5 13.5 0 6.143 4.125 11.341 9.75 12.97v32.53h-2.5c-7.444 0-13.5 6.056-13.5 13.5s6.056 13.5 13.5 13.5h32c7.444 0 13.5-6.056 13.5-13.5s-6.056-13.5-13.5-13.5zm0 19h-32c-3.033 0-5.5-2.467-5.5-5.5s2.467-5.5 5.5-5.5h6.5c2.209 0 4-1.791 4-4v-40c0-2.017-1.515-4-4.25-4-3.033 0-5.5-2.467-5.5-5.5s2.467-5.5 5.5-5.5h9.75c3.033 0 5.5 2.467 5.5 5.5v49.5c0 2.209 1.791 4 4 4h6.5c3.033 0 5.5 2.467 5.5 5.5s-2.467 5.5-5.5 5.5z"/><path d="m125.667 94c7.168 0 13-5.832 13-13s-5.832-13-13-13-13 5.832-13 13 5.831 13 13 13zm0-18c2.757 0 5 2.243 5 5s-2.243 5-5 5-5-2.243-5-5 2.243-5 5-5z"/></g></g></svg>