<svg id="Capa_1" enable-background="new 0 0 512 512" height="512" viewBox="0 0 512 512" width="512" xmlns="http://www.w3.org/2000/svg"><g><g><path d="m417.223 217.837c0 45.592 7.044 87.906-16.905 122.891-26.894 39.298-66.324 69.331-112.539 84.33-21.205 6.89-43.83 1.084-67.341 1.084-23.502 0-46.136 5.806-67.341-1.084-28.77-9.336-54.911-24.51-77.045-44.102-45.049-39.912-38.372-98.198-38.372-163.119 0-70.847-1.259-133.788 51.118-173.568 36.563-27.78 82.182-44.269 131.64-44.269 63.913 0 121.401 27.525 161.261 71.373 35.143 38.694 35.524 90.072 35.524 146.464z" fill="#b1e4f9"/><path d="m271.746 429.59c-16.454 3.98-33.635-.533-51.308-.533-23.503 0-46.137 2.895-67.343-3.992-28.77-9.343-54.915-24.51-77.042-44.111-45.053-39.909-38.373-98.197-38.373-163.117 0-70.844-1.261-133.79 51.113-173.575 36.567-27.776 82.18-44.262 131.645-44.262 17.672 0 34.854 2.104 51.308 6.084-95.55 23.055-166.538 109.12-166.538 211.753s70.988 188.698 166.538 211.753z" fill="#90d8f9"/><path d="m59.984 178.942c9.292 0 17.707 3.769 23.8 9.862 6.092 6.092 9.862 14.517 9.862 23.809 0 18.593-15.069 33.671-33.662 33.671h77.825c9.301 0 17.716 3.769 23.809 9.862 6.092 6.092 9.862 14.508 9.862 23.809 0 18.593-15.069 33.67-33.671 33.67h-27.105c7.495 0 14.42 2.455 20.013 6.592 1.341.991 2.612 2.086 3.796 3.27 4.883 4.874 8.266 11.238 9.424 18.365.289 1.762.438 3.585.438 5.435 0 18.602-15.078 33.67-33.67 33.67h-34.653c-45.049-39.913-73.451-98.199-73.451-163.12 0-70.847 33.819-133.788 86.197-173.568h44.207c9.292 0 17.716 3.769 23.809 9.862 3.778 3.778 6.662 8.451 8.301 13.675 1.017 3.191 1.56 6.601 1.56 10.134 0 18.593-15.078 33.662-33.67 33.662h23.169c9.301 0 17.716 3.769 23.809 9.862 6.092 6.092 9.862 14.517 9.862 23.809 0 18.602-15.069 33.671-33.67 33.671h-96.191z" fill="#9bd069"/><path d="m143.937 341.85c.289 1.762.438 3.585.438 5.435 0 18.602-15.078 33.67-33.67 33.67h-34.653c-45.049-39.911-73.451-98.197-73.451-163.118 0-70.847 33.819-133.788 86.197-173.568h44.207c9.292 0 17.716 3.769 23.809 9.862 3.778 3.778 6.662 8.451 8.301 13.675-28.647 30.147-48.757 68.481-56.445 111.136h-48.686c9.292 0 17.707 3.769 23.8 9.862 6.092 6.092 9.862 14.517 9.862 23.809 0 18.593-15.069 33.671-33.662 33.671h47.065c3.112 23.879 10.098 46.539 20.293 67.341h-16.638c7.495 0 14.42 2.455 20.013 6.592 3.989 7.485 8.407 14.708 13.22 21.633z" fill="#6ec17d"/><path d="m438.275 217.837c0 45.592-14.008 87.906-37.957 122.891h-42.121c-9.301 0-17.716-3.769-23.809-9.862-6.092-6.092-9.862-14.508-9.862-23.809 0-18.593 15.069-33.67 33.671-33.67h43.287c-9.301 0-17.716-3.769-23.809-9.862-6.092-6.084-9.862-14.499-9.862-23.8 0-18.602 15.078-33.67 33.67-33.67h-61.661c-9.301 0-17.716-3.769-23.8-9.862-6.092-6.092-9.862-14.508-9.862-23.809 0-18.593 15.069-33.67 33.662-33.67h-24.045c-9.292 0-17.716-3.769-23.809-9.862-6.092-6.092-9.862-14.508-9.862-23.809 0-18.593 15.078-33.67 33.671-33.67h65.921c35.144 38.694 56.577 90.072 56.577 146.464z" fill="#9bd069"/><path d="m287.779 417.203v7.854c-5.26 1.709-10.607 3.226-16.033 4.532-.044.009-.088.018-.132.035-16.41 3.953-33.539 6.049-51.176 6.049-23.502 0-46.136-3.726-67.341-10.616v-7.854c0-9.301 3.769-17.716 9.862-23.809 5.04-5.04 11.668-8.486 19.066-9.529 1.552-.219 3.129-.333 4.742-.333 15.972 0 29.349 11.115 32.803 26.035.57 2.454.868 5.014.868 7.635 0-2.332.237-4.611.684-6.802 3.147-15.341 16.726-26.868 32.987-26.868 18.592.001 33.67 15.07 33.67 33.671z" fill="#f6f9f9"/><path d="m271.746 429.59c-.044.009-.088.018-.132.035-16.41 3.953-33.539 6.049-51.176 6.049-23.502 0-46.136-3.726-67.341-10.616v-7.854c0-9.301 3.769-17.716 9.862-23.809 5.04-5.04 11.668-8.486 19.066-9.529 11.545 9.809 24.115 18.444 37.545 25.702.57 2.454.868 5.014.868 7.635 0-2.332.237-4.611.684-6.802 15.823 8.389 32.794 14.885 50.624 19.189z" fill="#dddaec"/></g><g><path d="m500.883 503.482c-11.354 11.354-29.762 11.354-41.116 0l-84.147-84.147 41.116-41.116 84.147 84.147c11.354 11.353 11.354 29.762 0 41.116z" fill="#c38959"/><path d="m507.647 492.853c-1.395 3.883-3.654 7.522-6.761 10.628-11.358 11.358-29.761 11.358-41.119 0l-84.148-84.148 17.397-17.397 84.148 84.148c8.243 8.243 20.211 10.51 30.483 6.769z" fill="#b17a4a"/><circle cx="351.201" cy="353.799" fill="#e4936b" r="120.479"/><path d="m286.561 438.991c20.913 20.902 47.594 32.523 74.915 34.841-34.161 2.915-69.321-8.695-95.467-34.841-47.048-47.048-47.048-123.333 0-170.382 26.146-26.146 61.306-37.756 95.467-34.841-27.32 2.318-54.002 13.928-74.915 34.841-47.048 47.049-47.048 123.334 0 170.382z" fill="#e27d47"/><circle cx="351.201" cy="353.799" fill="#f6f9f9" r="80.381"/><path d="m325.196 410.642c11.754 11.755 26.249 19.1 41.424 22.056-25.353 4.935-52.622-2.421-72.257-22.056-31.39-31.389-31.39-82.291 0-113.68 19.635-19.635 46.904-26.991 72.257-22.056-15.175 2.946-29.669 10.302-41.424 22.056-31.389 31.389-31.389 82.291 0 113.68z" fill="#dddaec"/><path d="m351.201 441.906c-23.534 0-45.66-9.165-62.301-25.806s-25.806-38.767-25.806-62.301 9.165-45.66 25.806-62.301 38.767-25.806 62.301-25.806 45.66 9.165 62.301 25.806c16.641 16.641 25.806 38.767 25.806 62.301s-9.165 45.66-25.806 62.301-38.767 25.806-62.301 25.806zm0-160.761c-19.406 0-37.651 7.557-51.374 21.28s-21.28 31.968-21.28 51.374 7.557 37.651 21.28 51.374 31.968 21.28 51.374 21.28 37.651-7.557 51.374-21.28 21.28-31.968 21.28-51.374-7.557-37.651-21.28-51.374c-13.723-13.723-31.968-21.28-51.374-21.28z" fill="#e27d47"/></g></g></svg>